<svg id="visual" viewBox="0 0 900 600" width="900" height="600" xmlns="http://www.w3.org/2000/svg" xmlns:xlink="http://www.w3.org/1999/xlink" version="1.1"><rect x="0" y="0" width="900" height="600" fill="#001220"></rect><path d="M666 600L664.2 585.7C662.3 571.3 658.7 542.7 643.3 514.2C628 485.7 601 457.3 599.5 428.8C598 400.3 622 371.7 638.7 343C655.3 314.3 664.7 285.7 655.2 257C645.7 228.3 617.3 199.7 593.3 171.2C569.3 142.7 549.7 114.3 548.3 85.8C547 57.3 564 28.7 572.5 14.3L581 0L900 0L900 14.3C900 28.7 900 57.3 900 85.8C900 114.3 900 142.7 900 171.2C900 199.7 900 228.3 900 257C900 285.7 900 314.3 900 343C900 371.7 900 400.3 900 428.8C900 457.3 900 485.7 900 514.2C900 542.7 900 571.3 900 585.7L900 600Z" fill="#fa7268"></path><path d="M660 600L666.8 585.7C673.7 571.3 687.3 542.7 681.2 514.2C675 485.7 649 457.3 645 428.8C641 400.3 659 371.7 656 343C653 314.3 629 285.7 620.8 257C612.7 228.3 620.3 199.7 636.7 171.2C653 142.7 678 114.3 676.7 85.8C675.3 57.3 647.7 28.7 633.8 14.3L620 0L900 0L900 14.3C900 28.7 900 57.3 900 85.8C900 114.3 900 142.7 900 171.2C900 199.7 900 228.3 900 257C900 285.7 900 314.3 900 343C900 371.7 900 400.3 900 428.8C900 457.3 900 485.7 900 514.2C900 542.7 900 571.3 900 585.7L900 600Z" fill="#da446d"></path><path d="M742 600L742.2 585.7C742.3 571.3 742.7 542.7 729.8 514.2C717 485.7 691 457.3 683.3 428.8C675.7 400.3 686.3 371.7 698.7 343C711 314.3 725 285.7 723 257C721 228.3 703 199.7 706.5 171.2C710 142.7 735 114.3 734.5 85.8C734 57.3 708 28.7 695 14.3L682 0L900 0L900 14.3C900 28.7 900 57.3 900 85.8C900 114.3 900 142.7 900 171.2C900 199.7 900 228.3 900 257C900 285.7 900 314.3 900 343C900 371.7 900 400.3 900 428.8C900 457.3 900 485.7 900 514.2C900 542.7 900 571.3 900 585.7L900 600Z" fill="#ad1a74"></path><path d="M748 600L749.8 585.7C751.7 571.3 755.3 542.7 765 514.2C774.7 485.7 790.3 457.3 791 428.8C791.7 400.3 777.3 371.7 766.2 343C755 314.3 747 285.7 753.7 257C760.3 228.3 781.7 199.7 790 171.2C798.3 142.7 793.7 114.3 789 85.8C784.3 57.3 779.7 28.7 777.3 14.3L775 0L900 0L900 14.3C900 28.7 900 57.3 900 85.8C900 114.3 900 142.7 900 171.2C900 199.7 900 228.3 900 257C900 285.7 900 314.3 900 343C900 371.7 900 400.3 900 428.8C900 457.3 900 485.7 900 514.2C900 542.7 900 571.3 900 585.7L900 600Z" fill="#720378"></path><path d="M831 600L832.5 585.7C834 571.3 837 542.7 842.3 514.2C847.7 485.7 855.3 457.3 853.5 428.8C851.7 400.3 840.3 371.7 831.7 343C823 314.3 817 285.7 820.5 257C824 228.3 837 199.7 833.8 171.2C830.7 142.7 811.3 114.3 803 85.8C794.7 57.3 797.3 28.7 798.7 14.3L800 0L900 0L900 14.3C900 28.7 900 57.3 900 85.8C900 114.3 900 142.7 900 171.2C900 199.7 900 228.3 900 257C900 285.7 900 314.3 900 343C900 371.7 900 400.3 900 428.8C900 457.3 900 485.7 900 514.2C900 542.7 900 571.3 900 585.7L900 600Z" fill="#150f75"></path></svg>