<svg id="visual" viewBox="0 0 675 900" width="675" height="900" xmlns="http://www.w3.org/2000/svg" xmlns:xlink="http://www.w3.org/1999/xlink" version="1.1"><path d="M512 900L510.8 886.3C509.7 872.7 507.3 845.3 518.7 818C530 790.7 555 763.3 566.3 736.2C577.7 709 575.3 682 570.8 654.8C566.3 627.7 559.7 600.3 558.5 573C557.3 545.7 561.7 518.3 553.7 491C545.7 463.7 525.3 436.3 511.8 409C498.3 381.7 491.7 354.3 492.8 327C494 299.7 503 272.3 507.5 245.2C512 218 512 191 515.3 163.8C518.7 136.7 525.3 109.3 527.7 82C530 54.7 528 27.3 527 13.7L526 0L675 0L675 13.7C675 27.3 675 54.7 675 82C675 109.3 675 136.7 675 163.8C675 191 675 218 675 245.2C675 272.3 675 299.7 675 327C675 354.3 675 381.7 675 409C675 436.3 675 463.7 675 491C675 518.3 675 545.7 675 573C675 600.3 675 627.7 675 654.8C675 682 675 709 675 736.2C675 763.3 675 790.7 675 818C675 845.3 675 872.7 675 886.3L675 900Z" fill="#004cbb"></path><path d="M465 900L458.2 886.3C451.3 872.7 437.7 845.3 447.8 818C458 790.7 492 763.3 509 736.2C526 709 526 682 522.5 654.8C519 627.7 512 600.3 507.5 573C503 545.7 501 518.3 493.2 491C485.3 463.7 471.7 436.3 460.3 409C449 381.7 440 354.3 428.8 327C417.7 299.7 404.3 272.3 401 245.2C397.7 218 404.3 191 420 163.8C435.7 136.7 460.3 109.3 462.5 82C464.7 54.7 444.3 27.3 434.2 13.7L424 0L527 0L528 13.7C529 27.3 531 54.7 528.7 82C526.3 109.3 519.7 136.7 516.3 163.8C513 191 513 218 508.5 245.2C504 272.3 495 299.7 493.8 327C492.7 354.3 499.3 381.7 512.8 409C526.3 436.3 546.7 463.7 554.7 491C562.7 518.3 558.3 545.7 559.5 573C560.7 600.3 567.3 627.7 571.8 654.8C576.3 682 578.7 709 567.3 736.2C556 763.3 531 790.7 519.7 818C508.3 845.3 510.7 872.7 511.8 886.3L513 900Z" fill="#0059dd"></path><path d="M222 900L210.7 886.3C199.3 872.7 176.7 845.3 174.3 818C172 790.7 190 763.3 209.2 736.2C228.3 709 248.7 682 278 654.8C307.3 627.7 345.7 600.3 337.8 573C330 545.7 276 518.3 263.7 491C251.3 463.7 280.7 436.3 269.3 409C258 381.7 206 354.3 183.5 327C161 299.7 168 272.3 185 245.2C202 218 229 191 234.5 163.8C240 136.7 224 109.3 235.2 82C246.3 54.7 284.7 27.3 303.8 13.7L323 0L425 0L435.2 13.7C445.3 27.3 465.7 54.7 463.5 82C461.3 109.3 436.7 136.7 421 163.8C405.3 191 398.7 218 402 245.2C405.3 272.3 418.7 299.7 429.8 327C441 354.3 450 381.7 461.3 409C472.7 436.3 486.3 463.7 494.2 491C502 518.3 504 545.7 508.5 573C513 600.3 520 627.7 523.5 654.8C527 682 527 709 510 736.2C493 763.3 459 790.7 448.8 818C438.7 845.3 452.3 872.7 459.2 886.3L466 900Z" fill="#0066ff"></path><path d="M100 900L93.3 886.3C86.7 872.7 73.3 845.3 64.3 818C55.3 790.7 50.7 763.3 54 736.2C57.3 709 68.7 682 72 654.8C75.3 627.7 70.7 600.3 71.8 573C73 545.7 80 518.3 88 491C96 463.7 105 436.3 100.5 409C96 381.7 78 354.3 72.3 327C66.7 299.7 73.3 272.3 71 245.2C68.7 218 57.3 191 51.7 163.8C46 136.7 46 109.3 57.3 82C68.7 54.7 91.3 27.3 102.7 13.7L114 0L324 0L304.8 13.7C285.7 27.3 247.3 54.7 236.2 82C225 109.3 241 136.7 235.5 163.8C230 191 203 218 186 245.2C169 272.3 162 299.7 184.5 327C207 354.3 259 381.7 270.3 409C281.7 436.3 252.3 463.7 264.7 491C277 518.3 331 545.7 338.8 573C346.7 600.3 308.3 627.7 279 654.8C249.7 682 229.3 709 210.2 736.2C191 763.3 173 790.7 175.3 818C177.7 845.3 200.3 872.7 211.7 886.3L223 900Z" fill="#3c80ff"></path><path d="M0 900L0 886.3C0 872.7 0 845.3 0 818C0 790.7 0 763.3 0 736.2C0 709 0 682 0 654.8C0 627.7 0 600.3 0 573C0 545.7 0 518.3 0 491C0 463.7 0 436.3 0 409C0 381.7 0 354.3 0 327C0 299.7 0 272.3 0 245.2C0 218 0 191 0 163.8C0 136.7 0 109.3 0 82C0 54.7 0 27.3 0 13.7L0 0L115 0L103.7 13.7C92.3 27.3 69.7 54.7 58.3 82C47 109.3 47 136.7 52.7 163.8C58.3 191 69.7 218 72 245.2C74.3 272.3 67.7 299.7 73.3 327C79 354.3 97 381.7 101.5 409C106 436.3 97 463.7 89 491C81 518.3 74 545.7 72.8 573C71.7 600.3 76.3 627.7 73 654.8C69.7 682 58.3 709 55 736.2C51.7 763.3 56.3 790.7 65.3 818C74.3 845.3 87.7 872.7 94.3 886.3L101 900Z" fill="#6198ff"></path></svg>