<svg id="visual" viewBox="0 0 675 900" width="675" height="900" xmlns="http://www.w3.org/2000/svg" xmlns:xlink="http://www.w3.org/1999/xlink" version="1.1"><rect x="0" y="0" width="675" height="900" fill="#FFFFFF"></rect><g fill="#ff9f58"><path d="M0 -118L26.5 -36.5L112.2 -36.5L42.9 13.9L69.3 95.4L0 45.1L-69.3 95.4L-42.9 13.9L-112.2 -36.5L-26.5 -36.5Z" transform="translate(84 891)"></path><path d="M0 -51.9L11.7 -16L49.4 -16L18.9 6.1L30.5 42L0 19.8L-30.5 42L-18.9 6.1L-49.4 -16L-11.7 -16Z" transform="translate(146 579)"></path><path d="M0 -107.6L24.2 -33.2L102.3 -33.2L39.1 12.7L63.2 87L0 41.1L-63.2 87L-39.1 12.7L-102.3 -33.2L-24.2 -33.2Z" transform="translate(138 232)"></path><path d="M0 -54.7L12.3 -16.9L52.1 -16.9L19.9 6.5L32.2 44.3L0 20.9L-32.2 44.3L-19.9 6.5L-52.1 -16.9L-12.3 -16.9Z" transform="translate(365 350)"></path></g></svg>